<?xml version="1.0" encoding="UTF-8" ?>
<!DOCTYPE svg PUBLIC "-//W3C//DTD SVG 1.1//EN" "http://www.w3.org/Graphics/SVG/1.1/DTD/svg11.dtd">
<svg width="1000pt" height="1000pt" viewBox="0 0 1000 1000" version="1.1" xmlns="http://www.w3.org/2000/svg">
<path fill="#fefefe" d=" M 0.00 0.00 L 490.35 0.00 C 461.74 0.84 433.18 3.70 405.06 9.11 C 328.25 23.84 255.12 57.19 193.55 105.41 C 160.93 130.87 131.50 160.41 106.10 193.08 C 71.60 237.44 44.71 287.67 26.81 340.94 C 26.29 342.65 25.75 344.36 25.23 346.08 C -7.54 447.03 -6.66 558.48 27.13 659.05 C 51.97 733.06 94.48 801.10 150.29 855.70 C 223.55 928.36 320.01 977.20 421.98 993.10 C 477.93 1001.83 535.31 1001.11 591.01 990.91 C 670.58 976.47 746.36 941.95 809.70 891.70 C 885.49 831.85 943.42 749.62 973.83 657.92 C 999.85 580.40 1005.96 496.47 992.40 415.89 C 981.42 350.05 956.88 286.51 920.84 230.33 C 882.86 170.90 832.10 119.69 773.05 81.12 C 703.10 35.20 621.36 7.43 537.89 1.43 C 529.01 0.60 520.08 0.52 511.19 0.00 L 1000.00 0.00 L 1000.00 1000.00 L 0.00 1000.00 L 0.00 0.00 Z" />
<path fill="#0d0907" d=" M 490.35 0.00 L 511.19 0.00 C 520.08 0.52 529.01 0.60 537.89 1.43 C 621.36 7.43 703.10 35.20 773.05 81.12 C 832.10 119.69 882.86 170.90 920.84 230.33 C 956.88 286.51 981.42 350.05 992.40 415.89 C 1005.96 496.47 999.85 580.40 973.83 657.92 C 943.42 749.62 885.49 831.85 809.70 891.70 C 746.36 941.95 670.58 976.47 591.01 990.91 C 535.31 1001.11 477.93 1001.83 421.98 993.10 C 320.01 977.20 223.55 928.36 150.29 855.70 C 94.48 801.10 51.97 733.06 27.13 659.05 C -6.66 558.48 -7.54 447.03 25.23 346.08 C 25.75 344.36 26.29 342.65 26.81 340.94 C 44.71 287.67 71.60 237.44 106.10 193.08 C 131.50 160.41 160.93 130.87 193.55 105.41 C 255.12 57.19 328.25 23.84 405.06 9.11 C 433.18 3.70 461.74 0.84 490.35 0.00 Z" />
<path fill="#fefefe" d=" M 465.91 12.93 C 474.60 12.10 483.36 12.70 492.03 11.69 C 499.33 11.80 506.67 11.25 513.93 12.16 C 520.97 12.42 528.04 12.30 535.07 12.93 C 561.32 14.88 587.42 18.93 613.05 24.98 C 614.38 25.32 615.71 25.63 617.06 25.96 C 618.38 26.31 619.71 26.60 621.06 26.91 C 624.98 27.99 628.95 28.92 632.85 30.11 C 646.85 33.94 660.56 38.78 674.16 43.82 C 675.41 44.34 676.65 44.83 677.92 45.34 C 691.59 50.50 704.83 56.69 717.93 63.13 C 719.24 63.79 720.57 64.47 721.89 65.15 C 788.62 99.23 847.22 149.03 891.83 209.22 C 916.45 242.33 936.71 278.63 952.25 316.84 C 952.85 318.53 953.54 320.19 954.25 321.84 C 960.10 337.37 965.57 353.05 969.96 369.06 C 971.13 372.98 971.93 377.00 973.11 380.92 C 986.36 434.69 990.70 490.61 985.54 545.74 C 982.01 542.69 978.28 539.76 973.89 538.05 C 972.85 537.73 971.83 537.40 970.82 537.07 C 964.62 535.56 958.18 536.60 951.88 536.17 C 949.63 535.59 947.30 535.55 945.07 534.99 C 943.74 534.58 942.43 534.23 941.14 533.81 C 936.77 533.14 932.32 533.14 927.97 533.82 C 927.12 534.07 925.44 534.55 924.59 534.80 C 924.05 532.18 923.53 529.56 923.01 526.94 C 922.63 525.28 922.35 523.59 922.03 521.94 C 921.61 520.27 921.38 518.56 921.12 516.88 C 920.49 514.66 920.51 512.32 919.81 510.13 C 919.59 508.11 919.43 506.08 918.85 504.14 C 918.63 502.36 918.45 500.59 918.24 498.82 C 915.56 482.34 913.96 465.69 912.52 449.06 C 910.47 448.56 908.36 448.47 906.28 448.42 C 906.20 450.53 906.17 452.65 906.18 454.77 C 896.39 455.60 886.55 455.60 876.74 455.93 C 876.63 453.45 876.60 450.98 876.54 448.51 C 874.85 448.55 873.19 448.60 871.52 448.67 C 870.09 456.15 868.68 463.63 867.09 471.07 C 866.63 472.64 866.23 474.23 865.81 475.82 C 865.33 477.94 864.74 480.04 864.23 482.17 C 860.29 496.15 855.18 509.82 848.68 522.81 C 848.20 523.79 847.72 524.77 847.27 525.76 C 841.44 523.66 835.73 521.25 829.91 519.16 C 827.98 518.36 826.05 517.59 824.13 516.83 C 822.44 516.21 820.77 515.53 819.13 514.84 C 805.91 509.74 792.62 504.70 778.91 501.08 C 777.34 500.62 775.76 500.19 774.21 499.75 C 770.17 498.84 766.15 497.83 762.11 496.92 C 752.85 495.08 743.47 493.63 734.01 493.80 C 726.61 494.09 719.24 494.90 711.91 495.96 C 704.85 497.33 697.72 498.36 690.64 499.59 C 690.00 497.79 689.37 496.00 688.78 494.21 C 688.45 493.20 688.13 492.20 687.82 491.20 C 687.48 490.16 687.14 489.12 686.81 488.08 C 686.68 487.52 686.41 486.40 686.28 485.84 C 681.19 469.73 676.88 453.37 673.04 436.92 C 672.69 435.58 672.38 434.21 672.08 432.87 C 671.27 429.62 670.69 426.32 669.88 423.08 C 669.30 420.05 668.67 417.04 667.95 414.05 C 667.63 412.39 667.36 410.73 666.95 409.10 C 662.62 387.79 658.52 366.42 655.04 344.95 C 654.55 342.96 654.38 340.92 654.10 338.91 C 653.47 336.68 653.49 334.32 652.80 332.12 C 652.58 330.10 652.46 328.05 651.85 326.11 C 651.61 324.35 651.51 322.58 651.30 320.83 C 650.49 318.33 650.51 315.67 649.90 313.13 C 645.96 286.07 641.68 259.04 638.05 231.93 C 636.45 222.35 635.45 212.67 633.83 203.11 C 633.61 200.77 633.46 198.40 632.84 196.12 C 632.63 193.78 632.44 191.43 631.88 189.14 C 627.47 157.37 622.57 125.65 616.84 94.09 C 616.60 92.09 616.36 90.09 615.85 88.14 C 615.61 86.44 615.35 84.74 614.93 83.08 C 612.75 74.48 613.61 65.62 613.41 56.85 C 608.39 56.86 603.37 56.85 598.35 56.86 C 598.36 62.79 598.64 68.72 598.64 74.65 C 571.33 75.53 544.02 76.56 516.72 77.53 C 516.40 70.58 516.19 63.63 516.10 56.67 C 512.52 56.67 508.94 56.66 505.36 56.67 C 505.36 59.14 505.36 61.61 505.33 64.07 C 489.90 101.15 472.88 137.54 454.29 173.13 C 398.10 279.92 327.40 378.99 245.45 467.51 C 242.34 470.84 239.09 474.05 236.20 477.58 C 222.69 474.66 209.90 469.34 196.78 465.16 C 195.25 464.65 193.71 464.18 192.19 463.68 C 191.60 463.57 190.41 463.34 189.82 463.23 C 186.34 462.12 182.71 461.63 179.17 460.81 C 169.51 459.87 159.63 459.74 150.16 462.16 C 147.79 462.70 145.45 463.36 143.15 464.16 C 142.58 464.30 141.45 464.59 140.88 464.74 C 127.77 468.87 114.92 473.75 101.83 477.89 C 98.28 479.07 94.67 480.07 91.11 481.22 C 90.55 481.35 89.43 481.61 88.87 481.74 C 87.29 482.28 85.68 482.66 84.07 483.10 C 82.75 483.38 81.43 483.70 80.11 484.03 C 68.61 487.07 58.59 493.91 47.21 497.25 C 45.83 497.52 44.45 497.82 43.10 498.21 C 41.42 498.43 39.72 498.66 38.09 499.17 C 36.10 499.40 34.09 499.60 32.16 500.17 C 30.14 500.37 28.11 500.57 26.15 501.13 C 24.13 501.37 22.09 501.59 20.12 502.12 C 17.87 502.39 15.61 502.70 13.49 503.56 C 12.38 485.36 13.85 467.08 15.55 448.95 C 17.54 429.76 20.78 410.72 24.93 391.90 C 25.28 390.55 25.57 389.19 25.86 387.84 C 26.84 383.84 27.79 379.83 28.78 375.83 C 32.86 360.38 37.72 345.13 43.28 330.15 C 43.79 328.71 44.32 327.29 44.84 325.86 C 49.63 313.30 54.99 300.96 60.79 288.83 C 61.73 286.83 62.71 284.84 63.67 282.85 C 110.90 187.54 190.06 108.34 285.69 61.65 C 294.69 57.16 303.84 52.98 313.14 49.15 C 314.78 48.45 316.43 47.76 318.10 47.13 C 320.01 46.38 321.91 45.60 323.81 44.80 C 325.25 44.30 326.68 43.77 328.13 43.27 C 341.48 38.12 355.10 33.70 368.85 29.77 C 370.94 29.24 373.03 28.67 375.12 28.12 C 376.70 27.67 378.28 27.26 379.89 26.86 C 381.21 26.56 382.55 26.26 383.87 25.91 C 385.20 25.59 386.54 25.27 387.87 24.92 C 413.53 18.91 439.65 14.90 465.91 12.93 Z" />
<path fill="#0d0907" d=" M 436.34 51.27 C 450.40 50.04 464.39 47.93 478.49 47.18 C 478.91 50.45 479.36 53.72 479.54 57.01 C 470.33 57.74 461.18 58.99 451.99 59.80 C 452.06 60.46 452.21 61.77 452.29 62.43 C 455.40 62.88 458.70 62.48 461.79 61.83 C 464.55 61.56 467.33 61.46 470.09 61.16 C 472.53 60.57 475.05 60.51 477.55 60.38 C 478.14 63.63 478.44 66.92 478.62 70.22 C 470.18 70.97 461.78 72.19 453.33 72.75 C 453.44 74.40 453.56 76.05 453.69 77.71 C 463.38 76.72 473.08 75.72 482.76 74.61 C 483.12 77.88 483.42 81.16 483.72 84.43 C 469.51 86.20 455.24 87.54 440.99 89.04 C 440.69 88.90 440.09 88.61 439.78 88.47 C 439.47 85.62 439.41 82.74 439.17 79.89 C 438.14 76.37 438.78 72.64 437.82 69.12 C 437.52 66.36 437.41 63.59 437.19 60.83 C 436.28 57.73 436.49 54.46 436.34 51.27 Z" />
<path fill="#0d0907" d=" M 389.88 60.88 C 404.03 58.18 418.01 54.43 432.23 52.11 C 432.77 55.42 434.03 58.70 433.62 62.10 C 430.33 62.44 427.12 63.21 423.91 63.90 C 422.33 64.29 420.73 64.53 419.13 64.72 C 419.24 66.86 419.47 69.00 419.79 71.12 C 420.36 72.99 420.72 74.92 421.17 76.83 C 421.70 79.88 422.35 82.91 423.04 85.94 C 423.48 88.11 423.92 90.27 424.43 92.43 C 419.56 93.51 414.66 94.52 409.79 95.60 C 407.87 86.53 405.58 77.52 404.15 68.36 C 398.82 68.90 393.65 70.40 388.43 71.53 C 387.54 68.30 386.85 65.01 386.23 61.72 C 387.44 61.45 388.66 61.18 389.88 60.88 Z" />
<path fill="#e69202" d=" M 509.69 90.04 C 508.13 80.30 508.65 70.37 509.57 60.59 C 511.24 59.77 512.62 61.43 512.27 62.90 C 512.28 69.11 512.63 75.30 512.75 81.50 C 517.84 81.32 522.98 81.82 528.01 80.81 C 539.67 80.55 551.36 80.67 563.00 79.72 C 576.28 79.71 589.52 78.75 602.78 78.45 C 602.75 72.55 602.34 66.66 602.49 60.76 C 604.77 60.76 607.06 60.77 609.36 60.78 C 609.38 61.62 609.44 63.31 609.47 64.15 C 608.26 64.34 607.53 64.98 607.27 66.05 C 602.01 87.17 596.34 108.24 588.92 128.71 C 564.46 129.46 540.00 130.48 515.53 130.77 C 513.60 117.19 511.74 103.60 509.69 90.04 Z" />
<path fill="#0d0907" d=" M 353.40 72.33 C 358.24 71.01 362.92 68.66 367.81 67.80 C 378.36 77.52 388.98 87.20 399.26 97.22 C 394.15 99.05 388.91 100.52 383.85 102.48 C 381.81 100.65 379.85 98.72 378.07 96.64 C 375.00 98.41 371.46 98.99 368.20 100.28 C 366.34 100.88 364.48 101.43 362.58 101.85 C 361.48 104.38 361.73 107.30 360.72 109.78 C 354.73 112.73 347.82 113.66 342.05 117.21 C 341.52 117.41 340.45 117.81 339.91 118.00 C 339.27 118.54 338.60 119.06 337.93 119.54 C 337.08 118.81 336.16 118.17 335.18 117.63 C 330.68 123.99 323.45 127.78 316.07 129.80 C 310.27 131.26 303.77 131.36 298.44 128.32 C 291.09 124.39 287.62 114.72 290.59 106.97 C 292.96 99.90 299.06 94.94 305.40 91.49 C 312.45 87.87 320.49 85.01 328.51 86.65 C 332.00 87.57 335.76 89.61 336.91 93.29 C 333.80 95.79 329.60 97.00 326.01 98.87 C 324.55 100.33 322.82 99.47 321.89 97.99 C 319.99 97.30 317.89 97.77 315.92 97.75 C 314.95 98.15 313.98 98.53 313.00 98.89 C 309.56 100.53 306.08 102.81 304.60 106.50 C 302.80 110.83 305.15 115.81 308.75 118.41 C 311.86 119.71 315.11 119.20 318.25 118.31 C 322.58 116.87 326.08 113.83 328.60 110.08 C 325.07 111.09 321.78 112.79 318.64 114.66 C 316.93 111.76 315.48 108.72 314.17 105.63 C 317.41 104.01 320.82 102.70 323.90 100.77 C 328.57 98.93 332.98 96.51 337.54 94.42 C 340.71 99.90 342.69 106.01 346.18 111.30 C 346.78 108.24 347.43 105.20 347.82 102.10 C 348.73 98.15 349.21 94.12 350.13 90.17 C 350.38 88.46 350.67 86.75 351.04 85.06 C 351.77 80.80 352.53 76.56 353.40 72.33 Z" />
<path fill="#0d0907" d=" M 636.19 99.16 C 639.96 89.01 643.98 78.96 647.87 68.85 C 657.35 72.24 666.66 76.11 676.09 79.63 C 682.15 81.99 688.50 87.03 688.46 94.12 C 688.19 98.52 684.36 101.37 680.54 102.73 C 683.10 107.05 680.18 111.67 679.03 115.92 C 681.32 117.34 679.96 119.65 679.29 121.63 C 677.15 120.78 675.00 119.97 672.84 119.19 C 671.62 118.70 670.39 118.23 669.19 117.75 C 667.67 117.23 666.16 116.67 664.66 116.15 C 664.63 114.38 664.66 112.61 664.76 110.84 C 665.52 108.43 667.13 105.97 666.57 103.36 C 665.51 102.00 663.63 101.56 662.18 100.72 C 660.47 100.15 658.78 99.47 657.12 98.79 C 655.66 98.31 654.19 97.82 652.73 97.36 C 652.51 97.99 652.06 99.23 651.83 99.86 C 650.64 103.08 649.38 106.28 648.19 109.50 C 643.47 108.06 638.98 106.01 634.36 104.31 C 634.42 103.95 634.55 103.22 634.62 102.86 C 635.14 101.63 635.67 100.39 636.19 99.16 Z" />
<path fill="#e69202" d=" M 609.43 74.80 C 609.19 86.86 609.18 98.92 609.21 110.99 C 608.51 124.33 609.22 137.71 608.70 151.06 C 608.72 163.20 608.71 175.33 608.50 187.47 C 610.23 187.47 611.98 187.48 613.72 187.49 C 613.62 218.01 613.47 248.53 613.32 279.05 C 613.10 285.08 613.88 291.19 612.76 297.16 C 612.99 297.68 613.45 298.73 613.68 299.26 C 616.88 299.22 620.09 299.22 623.30 299.19 C 623.62 314.81 622.82 330.41 623.08 346.03 C 622.96 392.68 622.58 439.33 622.63 485.98 C 622.26 493.04 622.55 500.10 622.29 507.16 C 607.01 484.20 594.90 459.29 584.32 433.87 C 582.89 429.89 580.71 426.13 580.17 421.88 C 586.59 421.92 593.00 421.73 599.41 421.52 C 599.48 397.22 599.44 372.91 599.43 348.60 C 585.03 348.97 570.64 349.63 556.24 349.70 C 552.77 336.49 549.29 323.27 546.32 309.93 C 545.46 306.20 544.82 302.41 543.61 298.77 C 544.55 297.94 545.68 297.55 546.95 297.72 C 565.16 297.80 583.34 296.67 601.54 296.46 C 601.46 283.98 601.27 271.50 601.20 259.01 C 600.36 250.74 600.72 242.42 600.52 234.12 C 582.76 234.36 565.00 235.06 547.24 235.44 C 556.29 218.46 564.22 200.93 572.07 183.38 C 581.28 183.26 590.49 182.90 599.69 182.63 C 599.49 164.55 599.71 146.43 598.64 128.38 C 596.86 128.48 595.10 128.58 593.34 128.69 C 599.41 110.94 604.52 92.89 609.43 74.80 Z" />
<path fill="#fefefe" d=" M 502.14 81.87 C 502.55 80.72 503.29 79.74 504.07 78.81 C 505.07 86.49 505.19 94.30 504.70 102.02 C 504.79 128.64 504.41 155.26 504.42 181.88 C 501.11 181.98 497.80 181.97 494.50 182.07 C 494.45 212.44 494.22 242.81 494.14 273.18 C 493.22 280.63 493.92 288.21 493.78 295.71 C 489.84 296.54 485.81 296.37 481.82 296.35 C 481.67 310.52 481.99 324.71 481.67 338.87 C 465.01 364.78 446.73 389.67 428.09 414.20 C 406.48 442.34 383.90 469.74 360.28 496.22 C 358.41 498.00 357.01 501.63 353.86 500.30 C 352.85 499.88 351.84 499.49 350.82 499.12 C 327.01 491.94 302.61 486.47 277.82 484.15 C 272.55 483.31 267.23 482.73 261.92 482.14 C 259.38 481.38 256.66 481.62 254.14 480.78 C 252.14 480.57 250.13 480.40 248.20 479.81 C 245.72 479.55 243.26 479.18 240.91 478.31 C 316.98 397.53 383.52 307.69 438.20 211.11 C 444.29 200.15 450.39 189.20 456.28 178.13 C 462.29 166.47 468.31 154.81 474.12 143.04 C 479.39 132.00 484.81 121.02 489.82 109.85 C 491.32 106.62 492.73 103.36 494.22 100.12 C 496.80 94.01 499.65 88.02 502.14 81.87 Z" />
<path fill="#fefefe" d=" M 656.49 87.98 C 656.72 86.22 657.49 84.56 658.70 83.26 C 662.91 85.68 667.85 86.49 671.99 89.05 C 673.26 89.68 673.44 91.11 673.72 92.35 C 672.51 92.68 671.31 93.58 670.03 93.07 C 665.37 91.81 660.93 89.84 656.49 87.98 Z" />
<path fill="#9c908d" d=" M 363.32 91.14 C 363.66 88.47 364.17 85.82 364.82 83.20 C 366.44 84.61 367.96 86.15 369.21 87.91 C 367.87 86.80 366.48 85.75 365.10 84.69 C 365.04 86.37 364.09 88.24 365.22 89.76 C 365.57 89.95 366.25 90.32 366.60 90.50 C 365.51 90.76 364.41 90.95 363.32 91.14 Z" />
<path fill="#fefefe" d=" M 365.10 84.69 C 366.48 85.75 367.87 86.80 369.21 87.91 C 371.13 89.58 367.45 89.94 366.60 90.50 C 366.25 90.32 365.57 89.95 365.22 89.76 C 364.09 88.24 365.04 86.37 365.10 84.69 Z" />
<path fill="#0d0907" d=" M 689.12 104.08 C 691.80 98.78 694.55 93.52 697.40 88.31 C 704.82 92.42 712.44 96.18 719.95 100.15 C 725.07 102.68 730.07 105.45 735.17 108.03 C 733.84 111.04 732.19 113.90 730.83 116.90 C 729.92 116.58 729.01 116.24 728.13 115.90 C 720.78 111.84 713.28 108.08 705.86 104.16 C 705.50 104.85 704.77 106.24 704.40 106.94 C 711.74 110.60 718.85 114.69 726.30 118.13 C 727.27 120.35 724.97 122.39 724.31 124.44 C 723.56 125.43 723.34 127.87 721.62 127.23 C 716.99 125.01 712.61 122.31 707.96 120.15 C 705.16 118.73 702.50 116.90 699.43 116.13 C 698.82 117.44 698.23 118.76 697.64 120.07 C 705.90 124.42 714.19 128.70 722.46 133.04 C 723.40 134.23 722.19 135.69 721.84 136.88 C 720.80 138.69 719.85 140.54 718.97 142.43 C 705.82 135.84 692.80 129.00 679.81 122.11 C 682.20 117.38 684.68 112.70 687.09 107.98 C 687.75 106.67 688.43 105.38 689.12 104.08 Z" />
<path fill="#fefefe" d=" M 613.76 97.58 C 615.01 106.69 616.61 115.76 618.13 124.83 C 623.46 158.46 628.39 192.18 633.20 225.87 C 633.46 228.22 633.44 230.63 634.18 232.91 C 634.44 235.24 634.49 237.62 635.15 239.89 C 635.38 242.22 635.58 244.56 636.13 246.85 C 639.34 271.33 643.29 295.71 646.96 320.13 C 647.67 324.11 648.32 328.11 648.88 332.12 C 650.51 342.14 652.17 352.15 653.83 362.16 C 657.73 384.24 662.09 406.23 666.92 428.12 C 668.00 432.70 668.97 437.31 670.13 441.88 C 670.40 443.23 670.68 444.59 671.03 445.93 C 671.36 447.26 671.68 448.60 672.03 449.94 C 675.81 465.13 679.98 480.24 684.98 495.09 C 685.55 496.86 685.74 498.71 685.83 500.58 C 682.91 500.03 679.95 498.91 677.02 499.98 C 675.37 500.35 673.71 500.66 672.07 501.02 C 657.85 505.01 645.25 512.95 632.11 519.43 C 631.77 519.47 631.08 519.55 630.73 519.59 C 629.13 516.81 625.96 514.50 626.38 510.97 C 626.75 439.06 627.12 367.15 627.37 295.23 C 624.05 295.19 620.72 295.19 617.41 295.21 C 617.18 257.96 617.64 220.72 617.70 183.48 C 615.95 183.48 614.19 183.47 612.46 183.46 C 613.02 160.95 612.54 138.40 612.87 115.88 C 613.83 109.83 612.80 103.65 613.76 97.58 Z" />
<path fill="#e69202" d=" M 508.64 121.03 C 508.60 118.02 508.69 115.02 508.97 112.03 C 509.15 113.82 509.32 115.62 509.45 117.43 C 509.74 121.90 510.13 126.42 509.34 130.87 C 509.70 130.06 510.41 128.42 510.77 127.60 C 512.19 135.74 512.87 143.96 513.13 152.21 C 513.25 163.03 513.76 173.85 513.61 184.67 C 515.52 185.00 517.45 185.18 519.40 185.26 C 521.96 202.17 524.60 219.07 527.50 235.93 C 522.08 236.25 516.65 236.20 511.24 236.59 C 511.43 254.46 511.34 272.37 512.17 290.21 C 504.39 304.89 494.47 318.37 486.34 332.85 C 485.26 322.08 485.99 311.20 485.91 300.39 C 489.87 300.22 493.80 299.62 497.78 299.73 C 497.97 261.85 498.45 223.97 498.53 186.08 C 501.79 185.67 505.07 185.92 508.32 186.36 C 508.45 164.58 508.57 142.81 508.64 121.03 Z" />
<path fill="#0d0907" d=" M 248.71 125.17 C 252.86 122.75 256.28 118.64 260.97 117.41 C 267.16 127.05 274.15 136.17 280.68 145.60 C 281.13 146.51 282.45 147.55 281.56 148.62 C 278.70 150.78 275.67 152.71 272.81 154.87 C 271.15 156.42 268.81 155.40 266.86 155.26 C 263.69 154.27 260.40 153.75 257.20 152.86 C 252.72 152.04 248.37 150.61 243.84 150.09 C 247.14 154.85 250.49 159.56 253.88 164.25 C 254.69 165.15 254.81 166.36 255.04 167.50 C 251.17 169.70 248.02 173.30 243.82 174.76 C 236.54 165.02 229.82 154.84 222.55 145.09 C 222.49 144.78 222.38 144.16 222.32 143.86 C 225.91 141.46 229.32 138.81 232.92 136.43 C 236.61 135.71 240.26 137.39 243.85 138.12 C 249.34 139.12 254.68 140.82 260.19 141.75 C 256.53 136.11 252.42 130.78 248.71 125.17 Z" />
<path fill="#813105" d=" M 509.34 130.87 C 510.13 126.42 509.74 121.90 509.45 117.43 C 511.43 121.66 511.04 126.49 511.88 131.00 C 513.04 138.00 513.89 145.11 513.13 152.21 C 512.87 143.96 512.19 135.74 510.77 127.60 C 510.41 128.42 509.70 130.06 509.34 130.87 Z" />
<path fill="#0d0907" d=" M 737.06 118.92 C 741.56 117.99 746.36 117.89 750.84 119.05 C 751.84 119.39 752.86 119.73 753.88 120.06 C 763.02 124.19 771.88 130.60 776.06 140.02 C 776.84 142.98 776.75 146.06 776.38 149.07 C 776.06 149.74 775.41 151.08 775.09 151.75 C 771.72 150.52 769.13 147.92 766.03 146.22 C 764.88 144.96 762.16 144.40 762.71 142.21 C 763.26 138.41 760.24 135.60 757.51 133.52 C 754.82 131.63 751.63 130.25 748.31 130.22 C 743.26 130.21 738.91 135.06 739.24 140.05 C 739.23 144.46 743.13 147.45 746.31 149.89 C 749.12 152.06 752.64 152.89 756.14 152.48 C 753.14 150.41 750.13 148.36 747.11 146.31 C 748.93 143.55 750.77 140.79 752.75 138.14 C 757.14 140.84 760.97 144.93 766.03 146.22 L 765.00 146.64 C 767.08 148.00 769.13 149.42 771.22 150.76 C 772.40 151.45 774.14 152.11 773.57 153.87 C 769.68 159.57 765.65 165.19 761.96 171.03 C 758.35 169.88 755.65 167.04 752.43 165.15 C 752.88 164.29 753.34 163.42 753.80 162.56 C 743.49 161.59 734.15 155.18 728.53 146.64 C 724.05 140.12 723.84 130.46 729.31 124.44 C 731.31 121.87 734.11 120.19 737.06 118.92 Z" />
<path fill="#fefefe" d=" M 748.31 130.22 C 751.63 130.25 754.82 131.63 757.51 133.52 C 760.24 135.60 763.26 138.41 762.71 142.21 C 762.16 144.40 764.88 144.96 766.03 146.22 C 760.97 144.93 757.14 140.84 752.75 138.14 C 750.77 140.79 748.93 143.55 747.11 146.31 C 750.13 148.36 753.14 150.41 756.14 152.48 C 752.64 152.89 749.12 152.06 746.31 149.89 C 743.13 147.45 739.23 144.46 739.24 140.05 C 738.91 135.06 743.26 130.21 748.31 130.22 Z" />
<path fill="#fefefe" d=" M 547.00 134.17 C 557.90 133.07 569.01 134.02 579.94 132.90 C 582.29 132.76 584.66 132.76 587.04 132.76 C 586.36 137.35 584.31 141.57 582.74 145.89 C 582.23 147.31 581.70 148.74 581.20 150.17 C 580.52 151.82 579.87 153.47 579.30 155.16 C 578.79 156.37 578.31 157.59 577.80 158.80 C 575.15 165.82 572.11 172.69 569.25 179.62 C 553.76 179.67 538.28 180.69 522.79 180.84 C 520.77 165.44 517.59 150.15 516.70 134.63 C 526.80 134.70 536.90 134.39 547.00 134.17 Z" />
<path fill="#fefefe" d=" M 583.18 156.13 C 586.16 148.35 589.10 140.56 591.89 132.70 C 592.58 132.71 593.97 132.72 594.66 132.73 C 595.27 136.44 595.44 140.19 595.34 143.95 C 595.53 155.50 595.59 167.06 595.76 178.62 C 588.44 178.92 581.11 179.05 573.80 179.43 C 576.28 173.33 578.79 167.23 581.29 161.13 C 581.89 159.45 582.51 157.79 583.18 156.13 Z" />
<path fill="#0d0907" d=" M 763.29 172.07 C 770.82 162.38 778.63 152.89 786.33 143.32 C 790.24 146.47 794.31 149.45 797.97 152.90 C 790.34 162.64 782.27 172.04 774.82 181.92 C 770.25 180.66 767.49 176.09 763.33 173.92 C 763.32 173.46 763.30 172.54 763.29 172.07 Z" />
<path fill="#0d0907" d=" M 208.12 156.08 C 211.05 153.82 213.48 150.89 216.71 149.03 C 218.39 151.89 221.78 153.66 222.65 156.93 C 215.54 162.63 209.14 169.17 202.15 175.02 C 202.92 175.82 204.20 177.54 205.38 176.39 C 211.19 170.89 217.38 165.81 223.12 160.23 C 225.42 162.40 227.71 164.60 229.66 167.10 C 229.88 168.39 228.62 169.04 227.86 169.80 C 222.18 174.73 216.61 179.79 211.05 184.86 C 212.09 186.03 213.14 187.21 214.17 188.39 C 220.64 182.48 227.24 176.72 233.65 170.75 C 234.47 169.99 236.03 168.52 236.99 169.97 C 238.71 172.19 241.74 173.93 241.92 176.96 C 231.32 186.68 220.47 196.14 209.87 205.86 C 201.37 196.48 193.16 186.81 184.39 177.69 C 192.04 170.22 200.33 163.42 208.12 156.08 Z" />
<path fill="#0d0907" d=" M 783.53 185.21 C 780.32 175.35 787.93 164.03 798.05 162.69 C 807.24 161.52 815.66 166.98 822.03 173.04 C 828.70 179.68 834.61 189.14 831.94 198.91 C 829.75 204.61 825.01 209.48 819.04 211.12 C 816.35 211.79 813.54 211.46 810.82 211.27 C 808.58 210.51 806.34 209.79 804.18 208.83 C 794.92 203.67 786.67 195.55 783.53 185.21 Z" />
<path fill="#fefefe" d=" M 518.71 181.42 C 516.68 179.55 518.08 176.15 517.48 173.65 C 517.95 176.23 518.46 178.80 518.71 181.42 Z" />
<path fill="#fefefe" d=" M 797.80 179.81 C 800.23 176.19 804.75 174.25 808.95 176.00 C 813.41 178.37 817.69 181.95 819.10 187.00 C 820.78 192.56 815.54 198.46 810.03 198.65 C 803.96 198.09 799.37 193.21 796.53 188.19 C 796.34 185.38 795.63 182.07 797.80 179.81 Z" />
<path fill="#e69202" d=" M 523.50 184.86 C 538.15 184.52 552.81 184.02 567.46 183.63 C 559.95 201.18 551.48 218.30 542.98 235.38 C 539.17 235.86 535.33 235.88 531.51 235.78 C 528.58 218.85 525.81 201.89 523.50 184.86 Z" />
<path fill="#0d0907" d=" M 175.42 190.58 C 179.10 188.83 183.27 189.24 187.19 189.63 C 194.71 192.40 200.45 199.82 200.29 207.98 C 200.09 214.27 196.87 220.01 192.73 224.59 C 187.47 230.58 182.16 236.54 176.85 242.50 C 176.38 242.54 175.44 242.62 174.96 242.67 C 166.66 234.09 157.07 226.81 148.46 218.54 C 148.43 218.23 148.37 217.63 148.34 217.33 C 151.57 213.28 155.30 209.65 158.59 205.65 C 163.73 200.17 168.29 193.61 175.42 190.58 Z" />
<path fill="#0d0907" d=" M 814.19 219.95 C 824.14 211.96 833.71 203.48 843.90 195.83 C 846.70 199.62 849.91 203.08 852.76 206.83 C 852.39 210.63 851.56 214.37 851.10 218.16 C 850.17 223.27 849.24 228.42 849.13 233.63 C 853.87 229.45 858.91 225.62 863.68 221.48 C 864.01 221.50 864.69 221.53 865.03 221.55 C 867.24 224.47 869.63 227.25 871.94 230.08 C 872.64 230.86 872.93 231.78 872.84 232.85 C 863.01 240.31 853.84 248.59 844.09 256.16 C 841.11 252.81 838.54 249.12 835.40 245.91 C 836.35 236.38 838.38 226.98 839.70 217.49 C 834.54 221.85 829.34 226.16 824.09 230.39 C 823.83 230.44 823.32 230.55 823.06 230.60 C 820.03 227.12 817.31 223.36 814.19 219.95 Z" />
<path fill="#fefefe" d=" M 165.42 212.85 C 169.16 209.39 171.83 204.20 177.00 202.69 C 181.68 202.14 185.24 206.23 187.36 209.92 C 187.38 211.34 187.40 212.76 187.42 214.18 C 185.34 218.45 181.90 221.76 178.84 225.31 C 174.08 221.93 170.05 217.67 165.53 214.01 C 165.50 213.72 165.45 213.14 165.42 212.85 Z" />
<path fill="#fefefe" d=" M 544.95 239.74 C 562.14 238.97 579.35 238.68 596.54 238.14 C 597.01 244.37 596.13 250.72 597.19 256.87 C 597.35 268.74 597.50 280.62 597.50 292.49 C 579.25 292.96 561.02 293.80 542.76 293.82 C 540.27 281.90 537.83 269.97 535.52 258.01 C 538.58 251.87 542.30 246.07 544.95 239.74 Z" />
<path fill="#0d0907" d=" M 167.05 238.28 C 170.06 239.93 172.71 242.14 175.62 243.95 C 168.04 254.89 160.30 265.73 152.59 276.58 C 150.86 277.71 149.17 275.90 147.79 275.03 C 138.73 268.37 129.30 262.23 120.34 255.45 C 124.13 252.01 126.22 247.16 129.68 243.42 C 136.87 249.17 144.73 254.02 152.04 259.62 C 157.02 252.49 162.19 245.50 167.05 238.28 Z" />
<path fill="#fefefe" d=" M 515.16 240.16 C 519.51 240.16 523.87 240.13 528.24 240.20 C 528.47 241.77 528.73 243.33 529.09 244.89 C 529.57 248.99 530.64 252.99 531.16 257.09 C 526.45 266.44 521.08 275.46 515.78 284.49 C 515.70 269.71 515.33 254.94 515.16 240.16 Z" />
<path fill="#fefefe" d=" M 532.23 239.85 C 534.88 239.82 537.55 239.81 540.21 239.84 C 538.82 244.00 536.19 247.59 534.52 251.64 C 533.57 247.74 532.93 243.79 532.23 239.85 Z" />
<path fill="#0d0907" d=" M 869.33 250.19 C 872.88 246.92 878.99 248.85 880.61 253.20 C 882.74 257.48 878.96 263.57 873.98 262.81 C 871.30 263.29 869.29 261.64 867.57 259.86 C 866.04 256.65 866.24 252.40 869.33 250.19 Z" />
<path fill="#0d0907" d=" M 892.90 263.50 C 893.34 263.46 894.22 263.38 894.66 263.34 C 897.19 268.35 900.14 273.13 902.79 278.08 C 906.03 284.40 910.91 290.53 910.50 298.03 C 910.91 304.15 905.25 310.02 899.03 309.25 C 891.45 308.93 886.30 302.18 883.19 295.94 C 881.65 293.80 881.06 290.65 878.93 289.16 C 875.00 290.00 872.06 293.86 868.08 294.24 C 866.08 289.71 862.67 285.79 861.45 280.97 C 862.08 280.71 863.34 280.18 863.97 279.92 C 872.97 274.91 881.87 269.72 890.95 264.85 C 891.44 264.51 892.41 263.84 892.90 263.50 Z" />
<path fill="#fefefe" d=" M 517.18 290.18 C 522.29 281.28 527.80 272.56 532.26 263.31 C 534.59 273.55 536.46 283.89 538.67 294.16 C 531.10 294.53 523.51 294.52 515.92 294.72 C 516.06 293.13 516.23 291.51 517.18 290.18 Z" />
<path fill="#0d0907" d=" M 119.52 268.69 C 130.48 264.73 143.50 274.21 142.99 285.93 C 142.34 298.98 135.19 312.12 123.78 318.77 C 122.53 319.24 121.29 319.70 120.06 320.23 C 117.37 320.58 114.64 320.58 111.94 320.24 C 110.71 319.71 109.46 319.24 108.21 318.76 C 103.77 316.67 100.42 312.85 98.60 308.33 C 98.14 303.60 97.89 298.74 98.98 294.08 C 99.64 292.06 100.36 290.07 101.16 288.10 C 105.01 280.00 110.82 271.93 119.52 268.69 Z" />
<path fill="#fefefe" d=" M 888.68 285.46 C 887.12 282.63 891.35 282.11 893.10 281.13 C 895.11 285.39 898.69 289.22 898.71 294.18 C 897.77 294.65 896.85 295.14 895.94 295.63 C 892.36 293.22 890.81 289.01 888.68 285.46 Z" />
<path fill="#fefefe" d=" M 118.61 282.62 C 124.56 280.57 131.98 285.54 131.40 292.04 C 130.68 297.07 128.02 301.98 123.82 304.93 C 117.89 309.06 108.42 303.20 109.62 296.00 C 110.48 290.60 113.53 285.05 118.61 282.62 Z" />
<path fill="#e69202" d=" M 489.29 335.05 C 497.05 323.07 504.79 311.07 512.02 298.76 C 521.18 298.58 530.35 298.49 539.51 298.20 C 543.44 315.49 547.46 332.77 551.96 349.93 C 538.16 350.52 524.34 350.69 510.53 350.76 C 510.11 352.12 509.72 353.52 509.76 354.97 C 509.75 377.82 509.84 400.68 509.72 423.53 C 522.45 424.06 535.23 423.28 547.96 422.80 C 557.11 422.90 566.24 422.24 575.39 422.34 C 587.68 454.74 603.10 486.04 622.27 514.93 C 622.59 523.94 622.31 532.97 622.41 542.00 C 621.66 557.76 622.62 573.57 621.86 589.32 C 614.36 589.62 606.92 588.38 599.43 588.75 C 599.26 579.84 599.63 570.91 598.75 562.04 C 598.68 544.39 598.44 526.73 598.32 509.08 C 597.39 499.80 597.83 490.46 597.65 481.16 C 586.44 481.36 575.24 481.47 564.04 481.67 C 548.07 483.00 531.99 481.94 516.02 483.25 C 513.48 483.36 510.94 483.31 508.40 483.36 C 508.58 499.57 508.22 515.82 509.25 531.99 C 509.34 551.49 509.50 570.98 509.80 590.47 C 501.39 590.53 493.04 591.67 484.63 591.64 C 484.41 575.41 485.09 559.20 484.87 542.97 C 484.67 523.63 485.31 504.30 485.15 484.95 C 485.01 466.31 485.47 447.67 485.34 429.03 C 485.20 409.36 485.71 389.69 485.56 370.02 C 485.65 361.01 485.37 351.98 485.71 342.98 C 485.52 339.86 487.77 337.52 489.29 335.05 Z" />
<path fill="#0d0907" d=" M 888.77 323.53 C 890.96 313.42 902.94 307.16 912.56 310.72 C 920.20 313.43 925.09 320.60 928.14 327.76 C 930.62 333.75 932.29 340.43 930.91 346.90 C 929.92 351.17 927.29 355.71 922.74 356.81 C 922.23 355.49 921.72 354.18 921.22 352.87 C 920.47 351.22 919.80 349.54 919.20 347.85 C 918.59 346.52 917.98 345.19 917.37 343.88 C 918.46 342.40 919.49 340.86 920.44 339.28 C 920.38 338.44 920.25 336.76 920.19 335.93 C 919.84 334.88 919.51 333.83 919.22 332.78 C 917.71 329.02 915.08 325.19 910.82 324.40 C 906.25 323.96 901.66 326.78 899.64 330.85 C 899.64 332.62 899.65 334.39 899.71 336.17 C 900.07 337.20 900.42 338.24 900.76 339.30 C 902.34 343.32 905.91 347.25 910.68 346.32 C 912.65 350.94 914.57 355.58 916.58 360.19 C 909.00 361.95 901.13 358.53 896.60 352.37 C 890.65 344.20 886.67 333.71 888.77 323.53 Z" />
<path fill="#9c908d" d=" M 93.65 319.59 C 97.44 317.79 101.89 319.13 105.20 321.33 C 104.58 321.26 103.34 321.12 102.72 321.05 C 99.66 328.96 97.02 337.08 93.30 344.72 C 94.05 341.12 95.41 337.69 96.78 334.29 C 95.44 334.25 94.11 334.22 92.78 334.19 L 93.61 333.67 C 94.24 333.59 95.49 333.42 96.11 333.34 C 97.92 328.84 99.79 324.36 101.24 319.73 C 98.71 319.63 96.18 319.52 93.65 319.59 Z" />
<path fill="#0d0907" d=" M 79.83 333.95 C 82.78 327.93 87.16 322.01 93.65 319.59 C 96.18 319.52 98.71 319.63 101.24 319.73 C 99.79 324.36 97.92 328.84 96.11 333.34 C 95.49 333.42 94.24 333.59 93.61 333.67 L 92.78 334.19 C 88.01 337.83 85.58 344.11 86.32 350.02 C 87.30 356.63 96.65 360.36 101.54 355.46 C 105.90 350.97 108.62 344.10 106.42 337.93 C 105.07 341.12 104.07 344.47 102.51 347.58 C 99.40 347.88 96.35 345.51 93.30 344.72 C 97.02 337.08 99.66 328.96 102.72 321.05 C 103.34 321.12 104.58 321.26 105.20 321.33 C 111.38 323.58 117.45 326.14 123.61 328.48 C 122.31 331.74 120.89 334.96 119.97 338.35 C 118.85 338.41 117.74 338.46 116.63 338.52 C 117.18 344.47 116.51 350.48 113.93 355.92 C 110.75 362.92 105.42 369.53 97.86 371.94 C 95.26 372.61 92.56 372.61 89.92 372.28 C 88.88 371.93 87.84 371.60 86.79 371.31 C 80.47 368.96 76.04 362.73 75.43 356.08 C 74.95 352.36 75.34 348.61 75.88 344.93 C 76.94 341.18 78.19 337.49 79.83 333.95 Z" />
<path fill="#fefefe" d=" M 92.78 334.19 C 94.11 334.22 95.44 334.25 96.78 334.29 C 95.41 337.69 94.05 341.12 93.30 344.72 C 96.35 345.51 99.40 347.88 102.51 347.58 C 104.07 344.47 105.07 341.12 106.42 337.93 C 108.62 344.10 105.90 350.97 101.54 355.46 C 96.65 360.36 87.30 356.63 86.32 350.02 C 85.58 344.11 88.01 337.83 92.78 334.19 Z" />
<path fill="#fefefe" d=" M 361.35 501.19 C 404.78 452.52 445.18 401.04 481.50 346.82 C 481.82 372.88 481.35 398.94 481.34 425.00 C 481.56 444.34 480.88 463.65 481.05 482.99 C 481.19 503.28 480.65 523.56 480.82 543.84 C 472.07 542.87 463.45 541.04 454.87 539.09 C 452.52 538.38 450.15 537.74 447.77 537.19 C 443.77 535.90 439.75 534.67 435.79 533.29 C 427.75 530.35 419.93 526.86 412.22 523.16 C 395.49 515.61 378.52 508.56 361.19 502.53 C 361.23 502.19 361.31 501.53 361.35 501.19 Z" />
<path fill="#fefefe" d=" M 557.51 353.69 C 566.37 353.50 575.25 353.42 584.12 353.17 C 587.87 352.67 591.67 352.62 595.46 352.72 C 595.54 374.32 595.44 395.91 595.51 417.51 C 589.66 417.83 583.78 418.08 577.93 417.83 C 573.46 404.98 568.76 392.20 564.77 379.18 C 564.45 378.16 564.14 377.14 563.83 376.13 C 562.92 372.78 561.92 369.46 560.90 366.15 C 560.29 363.80 559.61 361.46 558.89 359.15 C 558.43 357.33 557.95 355.51 557.51 353.69 Z" />
<path fill="#fefefe" d=" M 513.79 359.05 C 513.73 357.55 514.09 356.10 514.48 354.68 C 527.41 354.62 540.34 354.31 553.27 354.12 C 555.33 361.83 557.71 369.44 559.94 377.10 C 560.25 378.11 560.55 379.13 560.86 380.16 C 561.30 381.43 561.70 382.69 562.17 383.97 C 562.30 384.52 562.57 385.62 562.70 386.17 C 566.18 396.95 569.87 407.66 573.88 418.27 C 553.84 418.59 533.82 419.52 513.79 419.74 C 513.81 399.51 513.81 379.28 513.79 359.05 Z" />
<path fill="#0d0907" d=" M 900.33 360.61 C 914.39 363.93 928.50 367.06 942.55 370.44 C 943.90 375.33 945.45 380.16 946.71 385.07 C 936.13 394.77 926.52 405.47 915.86 415.07 C 914.35 409.74 912.70 404.46 911.38 399.09 C 913.19 397.42 915.61 396.11 916.76 393.90 C 915.90 388.38 913.81 383.10 912.35 377.72 C 911.18 377.51 910.02 377.30 908.88 377.08 C 907.45 376.74 906.03 376.46 904.61 376.18 C 904.09 374.41 903.58 372.64 903.13 370.85 C 902.13 367.45 901.10 364.07 900.33 360.61 Z" />
<path fill="#fefefe" d=" M 923.23 380.12 C 925.84 380.29 928.44 380.75 930.99 381.37 C 929.06 383.00 927.20 384.71 925.56 386.62 C 924.63 384.50 923.90 382.32 923.23 380.12 Z" />
<path fill="#e69202" d=" M 876.10 457.41 C 886.32 457.23 896.52 456.63 906.74 456.36 C 905.07 462.43 903.68 468.60 901.45 474.50 C 893.82 474.37 886.20 475.04 878.57 474.82 C 877.64 469.03 876.83 463.22 876.10 457.41 Z" />
<path fill="#e69202" d=" M 906.31 473.88 C 906.90 469.83 908.45 465.98 909.62 462.07 C 910.23 473.02 909.26 483.99 909.67 494.95 C 910.11 495.13 910.98 495.50 911.42 495.68 C 911.86 508.91 910.72 522.16 911.55 535.38 C 912.35 535.33 913.95 535.24 914.76 535.19 C 914.71 553.96 914.96 572.74 914.49 591.51 C 911.95 587.21 909.92 582.65 907.82 578.13 C 907.11 576.52 906.25 574.92 906.28 573.13 C 906.09 566.49 906.50 559.84 906.12 553.22 L 905.79 552.53 C 903.34 552.45 900.89 552.51 898.45 552.57 L 897.94 552.58 C 895.96 546.63 893.98 540.67 892.23 534.66 C 897.08 534.32 901.96 534.41 906.84 534.26 C 906.65 526.80 906.66 519.34 906.64 511.87 C 901.87 512.23 897.08 512.36 892.31 512.37 C 894.82 506.14 897.26 499.88 899.62 493.59 C 901.89 493.58 904.17 493.58 906.46 493.54 C 906.43 486.99 906.06 480.43 906.31 473.88 Z" />
<path fill="#813105" d=" M 134.21 471.30 C 144.53 467.88 155.01 464.04 166.04 464.24 C 189.48 463.33 210.26 476.00 232.59 480.96 C 186.25 529.97 136.29 575.63 82.84 616.80 C 67.84 628.32 52.52 639.44 36.68 649.78 C 23.63 609.77 16.11 567.99 13.70 525.99 C 13.34 519.84 13.22 513.68 13.22 507.52 C 24.10 505.24 35.14 503.90 46.01 501.61 C 56.04 499.51 64.87 494.07 74.29 490.31 C 79.72 488.11 85.49 487.02 91.08 485.38 C 105.66 481.33 119.87 476.08 134.21 471.30 Z" />
<path fill="#fefefe" d=" M 868.13 483.13 C 869.69 477.13 871.24 471.12 872.41 465.02 C 872.52 474.48 872.37 483.94 872.39 493.40 C 871.15 493.45 869.92 493.50 868.70 493.57 C 868.84 506.66 868.60 519.75 868.53 532.84 C 862.62 531.30 856.91 529.16 851.14 527.20 C 856.17 517.14 860.65 506.79 864.21 496.12 C 864.54 495.10 864.90 494.09 865.27 493.09 C 865.41 492.53 865.69 491.41 865.83 490.84 C 866.17 489.83 866.50 488.81 866.81 487.79 C 867.24 486.23 867.66 484.67 868.13 483.13 Z" />
<path fill="#e69202" d=" M 873.88 473.07 C 875.99 479.92 875.63 487.14 875.78 494.21 C 876.38 494.30 877.58 494.47 878.18 494.56 C 879.20 500.60 880.97 506.50 881.89 512.56 C 879.50 512.61 877.13 512.68 874.76 512.80 C 875.25 520.20 874.48 527.70 875.61 535.03 L 877.09 535.67 C 873.72 541.82 870.34 547.98 866.58 553.92 C 865.80 548.22 866.23 542.46 866.14 536.74 L 866.14 535.52 C 867.00 535.54 868.73 535.58 869.59 535.60 C 870.21 533.18 870.38 530.69 869.67 528.28 C 869.33 522.82 870.50 517.43 870.29 511.98 C 870.25 506.27 870.28 500.57 870.28 494.86 C 871.43 494.82 872.59 494.79 873.76 494.76 C 873.74 487.53 873.56 480.29 873.88 473.07 Z" />
<path fill="#fefefe" d=" M 879.02 476.34 C 886.34 476.48 893.64 475.88 900.96 475.84 C 900.64 477.21 900.30 478.58 899.97 479.95 C 899.60 480.93 899.25 481.91 898.91 482.90 C 897.94 486.15 896.85 489.37 895.50 492.48 C 890.93 492.56 886.37 492.74 881.82 492.76 C 880.86 487.29 879.59 481.87 879.02 476.34 Z" />
<path fill="#fefefe" d=" M 911.40 477.91 C 912.81 490.70 914.74 503.43 916.91 516.12 C 917.40 518.34 917.64 520.61 918.15 522.84 C 918.79 526.18 919.36 529.54 920.22 532.84 C 920.33 534.01 920.48 535.21 920.61 536.41 C 919.85 536.45 918.31 536.52 917.55 536.56 C 917.38 536.87 917.06 537.48 916.90 537.79 C 916.60 536.46 916.29 535.14 915.98 533.83 C 914.85 533.67 913.73 533.56 912.61 533.51 C 912.41 520.25 912.95 507.02 913.11 493.77 C 912.58 493.78 911.51 493.80 910.97 493.81 C 911.10 488.51 910.89 483.19 911.40 477.91 Z" />
<path fill="#fefefe" d=" M 903.08 483.11 C 903.47 481.91 903.89 480.72 904.37 479.55 C 904.59 483.48 905.19 487.40 905.22 491.34 C 904.19 493.12 901.81 491.90 900.24 492.31 C 900.41 491.47 900.60 490.64 900.80 489.81 C 901.17 488.84 901.54 487.86 901.90 486.89 C 902.28 485.62 902.67 484.36 903.08 483.11 Z" />
<path fill="#813105" d=" M 237.33 482.21 C 252.11 484.71 266.94 486.99 281.85 488.63 C 305.92 491.35 329.61 496.84 352.74 503.98 C 350.90 506.99 348.34 509.43 345.96 511.99 C 315.65 544.81 284.21 576.75 249.51 604.98 C 249.24 604.39 248.69 603.23 248.42 602.65 C 233.05 601.92 217.68 601.16 202.30 600.57 C 203.63 608.98 202.51 617.51 203.26 625.97 C 203.42 628.03 203.67 630.17 202.86 632.15 C 202.14 621.64 202.40 611.11 201.75 600.61 C 190.66 603.22 179.48 605.52 168.51 608.57 C 168.79 613.22 169.32 617.86 169.47 622.53 C 148.43 625.10 127.52 628.81 107.04 634.27 C 84.69 640.22 62.57 647.06 40.91 655.17 C 40.28 655.39 39.00 655.82 38.36 656.04 C 38.38 655.44 38.43 654.23 38.45 653.63 C 67.38 634.66 94.75 613.39 121.38 591.32 C 162.16 557.31 200.81 520.76 237.33 482.21 Z" />
<path fill="#fefefe" d=" M 518.90 486.79 C 543.86 486.67 568.76 485.21 593.73 485.22 C 593.70 491.82 593.88 498.42 593.97 505.02 C 594.71 514.05 594.39 523.16 594.48 532.22 C 592.26 532.71 590.07 533.31 587.89 533.91 C 586.29 534.33 584.69 534.74 583.11 535.17 C 581.75 535.47 580.39 535.74 579.06 536.10 C 576.08 536.73 573.09 537.34 570.13 538.10 C 551.41 541.97 532.43 544.79 513.30 545.36 C 513.29 539.22 512.80 533.10 513.18 526.96 C 512.21 523.40 512.75 519.69 512.64 516.06 C 512.49 506.45 512.40 496.83 512.34 487.22 C 514.28 487.21 516.23 487.22 518.19 487.25 L 518.90 486.79 Z" />
<path fill="#9c908d" d=" M 876.97 491.37 C 880.28 491.35 875.57 494.41 876.97 491.37 Z" />
<path fill="#e69202" d=" M 882.27 494.28 C 886.53 494.16 890.81 494.05 895.08 493.85 C 892.69 500.19 890.61 506.72 887.37 512.69 C 886.17 512.48 885.89 510.95 885.62 510.00 C 884.39 504.79 883.20 499.56 882.27 494.28 Z" />
<path fill="#813105" d=" M 692.04 503.50 C 710.51 500.47 729.24 496.04 748.04 498.64 C 781.93 503.19 813.36 517.28 845.04 529.35 C 827.75 562.53 797.26 590.33 760.10 598.57 C 753.24 599.96 748.05 594.70 743.13 590.87 C 728.12 578.03 717.47 560.98 708.57 543.54 C 702.31 530.53 696.66 517.19 692.04 503.50 Z" />
<path fill="#813105" d=" M 672.18 505.20 C 677.22 503.28 682.61 505.05 687.81 504.25 C 694.54 523.26 702.29 542.02 712.50 559.45 C 720.67 573.57 730.95 586.51 743.57 596.91 C 737.35 596.56 731.19 595.61 724.97 595.24 C 721.39 595.16 718.14 593.61 715.00 592.06 C 686.43 578.95 661.90 558.15 642.00 534.01 C 639.17 530.43 636.01 527.09 633.75 523.10 C 646.51 517.05 658.61 509.40 672.18 505.20 Z" />
<path fill="#813105" d=" M 356.53 506.59 C 357.57 505.41 359.30 506.46 360.56 506.68 C 380.01 513.51 399.07 521.46 417.71 530.28 C 437.63 539.55 459.09 545.23 480.85 548.09 C 480.93 562.65 480.41 577.21 480.60 591.77 C 457.58 593.52 434.51 595.27 411.52 597.56 C 367.82 598.49 324.22 601.91 280.71 605.93 C 271.34 606.70 262.04 608.22 252.65 608.67 C 255.26 604.66 259.66 602.37 263.07 599.13 C 296.39 570.57 327.05 539.04 356.53 506.59 Z" />
<path fill="#fefefe" d=" M 876.77 533.81 C 876.17 527.16 876.28 520.45 876.42 513.79 C 878.38 513.80 880.36 513.81 882.34 513.82 C 883.06 516.19 883.59 518.61 884.27 521.00 C 883.53 522.35 882.81 523.70 882.24 525.13 C 880.36 527.95 879.92 532.13 876.77 533.81 Z" />
<path fill="#fefefe" d=" M 888.57 521.18 C 889.37 518.63 890.67 516.26 891.69 513.79 C 896.19 513.43 900.72 513.60 905.25 513.31 C 905.48 519.75 905.53 526.20 905.56 532.65 C 900.98 532.73 896.42 533.13 891.86 533.37 C 890.80 529.30 889.20 525.34 888.57 521.18 Z" />
<path fill="#813105" d=" M 626.39 526.20 C 627.49 525.82 628.60 525.44 629.72 525.08 C 650.77 553.10 677.00 578.13 708.80 593.49 C 689.50 592.64 670.26 590.59 650.93 590.30 C 642.74 589.52 634.51 589.57 626.29 589.37 C 625.89 568.31 626.44 547.25 626.39 526.20 Z" />
<path fill="#fefefe" d=" M 884.19 530.17 C 884.80 529.10 885.42 528.04 886.03 526.97 C 886.41 529.10 886.92 531.21 887.48 533.31 C 885.99 533.37 884.50 533.44 883.03 533.52 C 883.38 532.39 883.76 531.27 884.19 530.17 Z" />
<path fill="#813105" d=" M 805.88 581.90 C 824.03 568.62 838.37 550.68 849.13 531.06 C 854.89 532.68 860.47 534.83 866.14 536.74 C 866.23 542.46 865.80 548.22 866.58 553.92 C 866.60 554.09 866.64 554.42 866.66 554.59 C 866.12 554.50 865.02 554.31 864.48 554.22 C 864.24 555.66 864.56 557.33 863.59 558.58 C 851.52 576.47 836.47 593.53 816.37 602.45 C 812.75 603.76 809.05 606.05 805.07 605.18 C 793.71 603.31 782.30 601.85 770.90 600.25 C 783.24 595.58 795.37 589.99 805.88 581.90 Z" />
<path fill="#e69202" d=" M 865.65 562.80 C 871.71 553.84 877.21 544.48 881.99 534.78 C 883.98 534.71 885.98 534.66 887.99 534.63 C 889.65 540.91 892.02 546.97 893.72 553.24 C 887.26 553.43 880.79 553.47 874.33 553.57 C 874.31 562.24 874.32 570.90 874.33 579.57 C 884.00 579.33 893.69 579.23 903.35 578.65 C 906.61 584.80 909.33 591.23 912.75 597.30 C 913.47 598.78 914.63 600.20 914.58 601.96 C 914.62 610.21 914.58 618.46 914.58 626.72 C 911.92 626.13 909.28 625.51 906.60 625.14 C 905.36 622.23 905.87 619.04 905.78 615.99 C 905.66 610.64 905.60 605.30 905.64 599.96 C 895.04 600.30 884.44 600.64 873.84 600.81 C 873.68 606.42 874.06 612.02 873.94 617.63 C 871.18 616.99 868.40 616.42 865.62 615.91 C 865.51 598.21 865.46 580.50 865.65 562.80 Z" />
<path fill="#813105" d=" M 513.27 549.42 C 540.77 548.67 567.97 543.47 594.47 536.32 C 594.98 545.53 594.54 554.77 594.87 563.99 C 595.65 570.79 595.02 577.64 595.49 584.46 C 577.01 585.45 558.49 585.45 540.00 586.22 C 531.36 586.39 522.73 586.75 514.09 586.72 C 513.21 574.32 513.68 561.85 513.27 549.42 Z" />
<path fill="#813105" d=" M 925.93 538.78 C 931.57 536.62 937.87 536.94 943.56 538.71 C 950.21 540.55 957.14 540.16 963.96 540.22 C 972.22 540.25 979.39 545.25 984.96 550.94 C 982.43 574.51 978.16 597.89 972.32 620.87 C 971.05 625.48 970.27 630.27 968.31 634.67 C 959.48 626.11 952.85 615.58 947.39 604.64 C 939.56 589.04 934.33 572.30 929.66 555.53 C 928.30 549.97 926.46 544.50 925.93 538.78 Z" />
<path fill="#813105" d=" M 916.30 541.24 C 918.01 540.85 919.71 540.45 921.45 540.07 C 927.79 565.76 934.93 591.67 948.08 614.83 C 952.69 622.63 957.80 630.29 964.47 636.52 C 965.69 637.64 966.70 638.96 967.52 640.43 C 958.33 639.41 949.51 635.55 942.52 629.47 C 931.85 620.50 923.84 608.85 917.14 596.75 C 915.61 594.09 915.82 590.92 915.81 587.98 C 916.75 572.42 916.11 556.82 916.30 541.24 Z" />
<path fill="#813105" d=" M 898.45 552.57 C 900.89 552.51 903.34 552.45 905.79 552.53 L 906.12 553.22 L 904.31 553.23 C 904.97 558.81 904.76 564.44 904.49 570.05 C 902.25 564.30 899.83 558.59 898.45 552.57 Z" />
<path fill="#813105" d=" M 875.76 556.94 C 875.28 554.85 877.59 554.80 878.99 554.77 C 884.07 554.62 889.16 554.67 894.25 554.51 C 896.94 562.19 900.09 569.70 902.82 577.36 C 893.81 577.66 884.79 577.75 875.78 578.16 C 875.73 571.09 875.68 564.01 875.76 556.94 Z" />
<path fill="#813105" d=" M 853.13 579.19 C 857.01 574.93 860.21 570.11 864.05 565.82 C 864.50 582.29 864.13 598.78 864.24 615.26 C 848.50 612.66 832.88 609.26 817.06 607.08 C 830.80 600.34 843.31 590.98 853.13 579.19 Z" />
<path fill="#fefefe" d=" M 280.71 605.93 C 324.22 601.91 367.82 598.49 411.52 597.56 C 393.99 599.64 376.45 601.66 358.94 603.95 C 351.89 604.92 344.87 606.05 337.80 606.83 C 335.57 607.52 333.23 607.53 330.94 607.72 C 328.44 608.75 325.65 608.33 323.10 609.18 C 321.09 609.37 319.08 609.60 317.13 610.12 C 312.80 610.61 308.49 611.33 304.19 612.10 C 285.83 614.98 267.62 618.71 249.33 621.98 C 249.29 618.27 248.92 614.58 249.10 610.88 C 248.75 609.12 250.93 609.27 251.96 608.68 C 252.13 608.68 252.47 608.67 252.65 608.67 C 262.04 608.22 271.34 606.70 280.71 605.93 Z" />
<path fill="#fefefe" d=" M 168.51 608.57 C 179.48 605.52 190.66 603.22 201.75 600.61 C 202.40 611.11 202.14 621.64 202.86 632.15 C 183.78 636.11 164.95 641.26 146.06 646.07 C 144.76 646.39 143.46 646.73 142.18 647.11 C 126.04 651.36 110.10 656.32 94.13 661.16 C 93.10 661.49 92.08 661.84 91.06 662.22 C 90.51 662.36 89.41 662.65 88.86 662.79 C 87.86 663.12 86.86 663.46 85.88 663.81 C 84.87 664.12 83.86 664.44 82.86 664.78 C 80.86 665.46 78.85 666.14 76.82 666.76 C 66.71 670.25 56.61 673.80 46.69 677.80 C 45.32 674.62 44.13 671.37 42.92 668.13 C 41.50 664.09 40.03 660.06 38.69 655.99 C 39.24 655.78 40.36 655.37 40.91 655.17 C 62.57 647.06 84.69 640.22 107.04 634.27 C 127.52 628.81 148.43 625.10 169.47 622.53 C 169.32 617.86 168.79 613.22 168.51 608.57 Z" />
<path fill="#813105" d=" M 875.24 602.21 C 884.92 602.09 894.60 601.77 904.29 601.43 C 904.16 608.97 904.73 616.51 904.42 624.06 C 894.68 622.35 885.10 619.87 875.44 617.76 C 875.47 612.57 875.07 607.39 875.24 602.21 Z" />
<path fill="#813105" d=" M 916.34 603.84 C 922.73 614.72 930.57 624.77 940.13 633.04 C 932.14 631.17 924.15 629.19 916.27 626.94 C 915.42 619.32 915.72 611.49 916.34 603.84 Z" />
<path fill="#e69202" d=" M 589.18 621.13 C 590.23 620.25 591.62 620.21 592.93 620.18 C 602.57 620.20 612.21 619.78 621.85 619.95 C 621.86 668.62 621.37 717.28 621.45 765.95 C 620.90 783.53 621.31 801.13 621.18 818.72 C 610.41 819.07 599.63 818.97 588.87 818.94 C 587.47 819.16 586.70 817.80 585.81 817.03 C 574.89 804.86 563.99 792.68 553.00 780.56 C 539.34 793.38 526.31 806.86 512.66 819.69 C 502.99 819.85 493.32 819.98 483.65 819.91 C 483.72 810.25 483.40 800.59 483.91 790.95 C 483.89 735.86 484.45 680.77 484.38 625.68 C 491.16 625.32 497.90 624.47 504.70 624.27 C 504.80 629.23 504.65 634.21 505.25 639.15 C 505.57 649.77 505.61 660.39 505.84 671.02 C 506.52 676.75 506.28 682.53 506.57 688.29 C 510.19 685.72 513.27 682.49 516.55 679.51 C 525.00 671.41 533.94 663.80 542.17 655.49 C 531.21 644.88 519.73 634.78 509.05 623.89 C 513.01 623.65 516.97 623.38 520.94 623.22 C 522.26 623.18 523.82 623.01 524.86 624.06 C 534.21 631.56 543.69 638.90 552.98 646.48 C 565.01 637.98 577.07 629.51 589.18 621.13 Z" />
<path fill="#813105" d=" M 626.00 619.99 C 676.37 619.59 726.75 621.63 776.96 625.55 C 802.67 627.60 828.34 630.17 853.91 633.62 C 857.44 634.14 861.12 634.21 864.42 635.74 C 864.26 645.51 864.39 655.29 864.34 665.07 C 864.27 669.56 864.86 674.18 863.34 678.51 C 825.57 678.55 787.80 678.15 750.03 678.29 C 735.34 678.09 720.62 678.76 705.96 677.78 C 679.27 677.82 652.58 677.72 625.89 677.84 C 625.63 658.56 626.23 639.27 626.00 619.99 Z" />
<path fill="#813105" d=" M 530.30 622.77 C 547.55 621.79 564.83 620.71 582.11 620.81 C 572.57 627.77 562.87 634.54 553.09 641.15 C 545.47 635.05 537.60 629.24 530.30 622.77 Z" />
<path fill="#0d0907" d=" M 566.18 657.77 C 576.66 646.24 587.71 635.23 598.48 623.97 C 598.67 644.31 598.77 664.68 598.43 685.02 C 587.71 675.91 576.94 666.84 566.18 657.77 Z" />
<path fill="#813105" d=" M 383.03 637.04 C 415.28 632.38 447.67 628.67 480.16 626.20 C 480.51 643.24 480.17 660.29 480.34 677.33 C 436.58 677.90 392.81 677.16 349.04 677.33 C 334.37 677.34 319.69 677.31 305.02 677.35 C 287.00 676.33 268.93 677.05 250.89 676.85 C 250.64 672.12 250.40 667.39 250.43 662.66 C 294.09 651.58 338.48 643.63 383.03 637.04 Z" />
<path fill="#813105" d=" M 509.27 630.45 C 518.55 638.42 527.03 647.28 536.17 655.41 C 529.24 662.42 521.72 668.85 514.59 675.68 C 513.50 676.85 512.08 677.58 510.56 678.04 C 510.04 674.03 509.69 670.00 509.72 665.96 C 509.65 654.12 509.20 642.29 509.27 630.45 Z" />
<path fill="#813105" d=" M 572.17 657.37 C 579.56 649.48 587.08 641.71 594.65 633.99 C 594.71 648.04 594.73 662.10 594.63 676.15 C 586.96 670.12 579.67 663.61 572.17 657.37 Z" />
<path fill="#e69202" d=" M 865.40 635.23 C 868.36 635.61 871.32 636.05 874.29 636.54 C 874.33 637.24 874.40 638.65 874.44 639.35 C 880.81 639.35 887.26 638.27 893.56 639.64 C 900.51 641.01 907.54 641.95 914.42 643.65 C 914.46 669.26 914.30 694.88 914.30 720.49 C 910.18 720.59 906.06 720.60 901.95 720.50 C 897.97 715.92 893.81 711.50 889.79 706.96 C 884.74 711.34 880.47 716.58 875.15 720.63 C 871.91 720.78 868.66 720.76 865.48 721.42 C 864.81 692.71 865.59 663.96 865.40 635.23 Z" />
<path fill="#813105" d=" M 915.83 644.02 C 931.49 646.70 946.96 650.51 962.16 655.15 C 959.50 663.03 956.69 670.87 953.61 678.60 C 941.09 678.72 928.56 678.66 916.04 678.63 C 915.47 667.11 915.87 655.55 915.83 644.02 Z" />
<path fill="#0d0907" d=" M 876.72 648.62 C 885.88 648.26 895.06 648.08 904.22 647.77 C 903.43 650.01 901.16 651.01 899.38 652.33 C 896.05 654.50 892.96 657.03 889.51 659.01 C 885.34 655.43 880.90 652.18 876.72 648.62 Z" />
<path fill="#813105" d=" M 881.07 649.83 C 887.47 649.56 893.88 649.41 900.29 649.37 C 897.20 652.40 893.37 654.49 889.94 657.10 C 886.80 654.91 883.74 652.58 881.07 649.83 Z" />
<path fill="#0d0907" d=" M 872.48 649.48 C 876.78 653.85 881.30 658.03 885.87 662.12 C 881.84 666.33 877.51 670.23 873.15 674.09 C 872.78 665.89 872.75 657.68 872.48 649.48 Z" />
<path fill="#0d0907" d=" M 894.37 662.99 C 898.22 659.31 901.49 655.00 905.73 651.73 C 905.96 658.46 905.71 665.20 905.98 671.93 C 901.37 670.22 898.32 665.81 894.37 662.99 Z" />
<path fill="#813105" d=" M 873.96 653.44 C 877.31 656.27 880.92 659.00 883.27 662.78 C 880.36 665.26 877.88 668.32 874.46 670.15 C 874.26 664.58 874.10 659.01 873.96 653.44 Z" />
<path fill="#813105" d=" M 897.02 662.95 C 899.06 659.93 901.82 657.48 904.36 654.89 C 904.57 659.62 904.54 664.36 904.45 669.10 C 901.72 667.38 899.06 665.47 897.02 662.95 Z" />
<path fill="#0d0907" d=" M 504.84 697.74 C 520.48 686.42 536.58 675.72 552.19 664.36 C 565.43 675.02 579.01 685.29 592.02 696.24 C 562.95 696.60 533.92 697.85 504.84 697.74 Z" />
<path fill="#0d0907" d=" M 872.53 677.48 C 878.01 673.33 883.81 669.63 889.27 665.46 C 894.16 668.98 898.75 672.90 903.52 676.58 C 893.22 677.52 882.86 677.15 872.53 677.48 Z" />
<path fill="#813105" d=" M 877.73 675.78 C 881.41 672.77 885.47 670.26 889.21 667.33 C 892.67 669.90 896.24 672.39 899.20 675.55 C 892.04 675.55 884.88 675.96 877.73 675.78 Z" />
<path fill="#813105" d=" M 540.90 677.65 C 544.51 675.00 547.96 672.00 551.99 670.01 C 555.82 671.74 558.75 675.10 562.08 677.66 C 555.02 677.75 547.96 677.77 540.90 677.65 Z" />
<path fill="#fefefe" d=" M 183.14 681.23 C 190.18 679.07 197.18 676.66 204.37 675.06 C 204.31 677.69 203.97 680.45 205.16 682.92 C 205.28 693.35 205.90 703.79 205.59 714.21 C 195.69 714.48 185.79 714.62 175.89 714.88 C 174.45 715.20 172.98 715.38 171.52 715.52 C 161.89 725.11 151.76 734.18 142.20 743.84 C 143.14 744.77 144.08 745.70 145.03 746.63 C 152.89 739.31 160.46 731.68 168.33 724.35 C 170.52 722.47 172.25 719.88 175.08 718.91 C 184.11 718.48 193.16 718.59 202.20 718.26 C 211.80 717.00 221.62 718.01 231.28 717.14 L 232.01 716.26 L 232.74 717.21 C 236.63 716.92 240.52 716.50 244.45 716.60 C 253.40 729.22 261.96 742.12 270.90 754.76 C 271.78 754.03 272.68 753.33 273.52 752.57 C 273.91 751.39 272.83 750.48 272.30 749.58 C 264.60 738.68 257.12 727.62 249.54 716.64 C 250.09 716.64 251.18 716.63 251.73 716.63 C 251.71 704.65 250.66 692.65 251.27 680.70 C 252.88 680.74 254.49 680.80 256.10 680.89 C 260.98 681.40 266.03 681.53 270.90 680.82 C 272.23 680.76 273.56 680.86 274.88 681.09 C 275.52 681.17 276.78 681.33 277.42 681.40 L 277.60 680.59 C 279.04 680.72 280.48 680.91 281.91 681.16 C 282.45 681.16 283.54 681.17 284.09 681.17 C 285.98 680.58 287.97 680.64 289.88 681.14 C 292.14 680.81 295.47 682.32 296.99 680.22 L 297.73 681.13 C 312.13 681.67 326.57 681.21 340.99 681.36 C 387.33 681.26 433.67 681.72 480.02 681.50 C 480.12 702.68 480.29 723.87 479.83 745.05 C 479.97 771.28 479.63 797.50 479.61 823.73 C 491.27 823.75 502.95 823.96 514.59 823.55 C 527.00 811.64 539.26 799.57 551.58 787.58 C 552.54 786.28 553.93 787.56 554.61 788.43 C 565.09 800.05 575.54 811.70 586.00 823.34 C 599.03 822.23 612.14 823.10 625.20 822.75 C 625.19 776.46 625.51 730.17 625.70 683.88 C 625.88 683.32 626.23 682.19 626.41 681.62 C 652.71 681.97 679.03 681.57 705.33 681.82 L 706.00 682.84 C 706.93 681.65 708.31 681.30 710.13 681.80 C 711.67 682.34 713.32 682.38 714.96 682.36 C 764.51 682.21 814.06 682.47 863.61 682.49 C 863.61 695.38 863.64 708.26 863.60 721.15 C 860.48 724.19 857.19 727.04 854.18 730.18 C 854.68 730.88 855.69 732.29 856.20 732.99 C 859.93 729.65 863.69 726.28 867.08 722.58 C 870.02 722.23 872.98 722.30 875.95 722.22 C 876.99 721.08 878.58 721.23 880.01 721.22 C 889.99 721.32 900.06 720.82 909.95 722.37 C 915.52 725.88 920.19 730.75 925.96 733.96 C 926.37 733.24 927.18 731.81 927.58 731.09 C 923.56 728.08 919.60 724.99 915.57 722.00 C 915.31 708.84 915.64 695.68 915.74 682.52 C 927.79 682.71 939.85 682.52 951.91 682.62 C 921.43 759.02 870.54 826.98 806.75 878.79 C 767.81 910.44 723.90 935.90 677.20 954.24 C 661.62 960.05 645.93 965.58 629.87 969.91 C 628.55 970.26 627.23 970.59 625.92 970.94 C 596.80 978.57 567.01 983.80 536.99 985.97 C 529.67 986.95 522.25 986.33 514.93 987.26 C 471.93 988.44 428.79 984.06 386.92 974.06 C 385.59 973.70 384.25 973.40 382.91 973.10 C 381.57 972.74 380.22 972.44 378.88 972.17 C 377.33 971.66 375.74 971.28 374.19 970.81 C 342.69 962.44 312.05 950.77 282.92 936.14 C 217.30 903.46 159.34 855.62 114.56 797.61 C 96.41 774.28 80.73 749.12 66.92 723.01 C 67.34 723.45 68.19 724.31 68.62 724.74 C 72.96 722.58 77.46 720.74 81.89 718.77 C 84.88 717.49 87.87 716.21 90.84 714.90 C 101.21 710.53 111.59 706.15 122.15 702.24 C 123.38 701.73 124.62 701.24 125.86 700.75 C 127.29 700.26 128.70 699.74 130.13 699.26 C 131.36 698.76 132.60 698.30 133.83 697.82 C 148.39 692.56 162.99 687.44 177.76 682.80 C 178.80 682.46 179.84 682.11 180.88 681.75 C 181.44 681.62 182.57 681.36 183.14 681.23 Z" />
<path fill="#fefefe" d=" M 517.33 693.70 C 523.23 689.84 529.00 685.78 534.71 681.64 C 545.62 681.62 556.52 681.66 567.42 681.62 C 571.75 685.28 576.47 688.48 580.57 692.41 C 559.49 692.80 538.42 693.56 517.33 693.70 Z" />
<path fill="#0d0907" d=" M 877.36 682.95 C 886.56 682.95 895.77 682.49 904.98 682.71 C 901.03 686.82 896.85 690.71 892.82 694.74 C 891.73 695.60 890.80 697.17 889.20 696.79 C 886.88 694.58 885.20 691.72 882.43 690.01 C 882.71 689.68 883.29 689.04 883.57 688.71 L 884.16 688.64 C 885.88 691.02 887.89 693.18 889.88 695.35 C 893.80 691.80 897.50 688.00 901.36 684.38 C 894.21 684.23 887.06 684.43 879.92 684.61 C 881.21 685.81 882.47 687.02 883.78 688.23 L 883.11 688.35 C 882.69 688.38 881.83 688.45 881.40 688.48 C 879.94 686.71 878.38 685.00 877.36 682.95 Z" />
<path fill="#fefefe" d=" M 879.92 684.61 C 887.06 684.43 894.21 684.23 901.36 684.38 C 897.50 688.00 893.80 691.80 889.88 695.35 C 887.89 693.18 885.88 691.02 884.16 688.64 L 883.57 688.71 L 882.60 688.54 L 883.11 688.35 L 883.78 688.23 C 882.47 687.02 881.21 685.81 879.92 684.61 Z" />
<path fill="#0d0907" d=" M 872.82 688.26 C 876.24 691.78 879.44 695.51 882.82 699.07 C 883.79 700.04 884.51 701.23 884.94 702.55 C 880.84 705.82 877.64 710.07 873.47 713.25 C 873.27 704.92 872.79 696.59 872.82 688.26 Z" />
<path fill="#fefefe" d=" M 874.28 692.00 C 877.11 694.95 879.74 698.09 882.63 700.98 C 882.62 701.39 882.58 702.20 882.57 702.61 C 879.92 705.07 877.48 707.75 874.79 710.18 C 874.50 704.12 874.40 698.06 874.28 692.00 Z" />
<path fill="#0d0907" d=" M 904.54 692.29 C 904.95 692.32 905.76 692.37 906.17 692.40 C 906.02 700.28 906.68 708.15 906.47 716.03 C 902.50 711.37 897.98 707.17 894.38 702.20 C 897.94 699.08 901.29 695.73 904.54 692.29 Z" />
<path fill="#fefefe" d=" M 896.37 702.77 C 898.91 699.94 901.62 697.28 904.42 694.72 C 904.74 698.42 904.41 702.18 905.14 705.85 C 905.22 707.98 905.21 710.10 905.21 712.26 C 902.09 709.25 899.42 705.83 896.37 702.77 Z" />
<path fill="#fefefe" d=" M 881.77 717.50 C 883.76 714.13 886.93 711.70 889.79 709.11 C 892.22 711.90 894.74 714.61 897.14 717.43 C 892.02 717.58 886.89 717.51 881.77 717.50 Z" />
<path fill="#0d0907" d=" M 517.74 714.45 C 534.16 713.58 550.61 713.63 567.06 713.20 C 576.76 712.74 586.48 712.46 596.20 712.57 C 581.92 726.31 567.82 740.25 553.61 754.07 C 552.54 753.26 551.47 752.43 550.61 751.41 C 539.81 738.96 528.35 727.07 517.74 714.45 Z" />
<path fill="#fefefe" d=" M 527.24 717.73 C 541.51 717.74 555.79 717.45 570.06 717.16 C 575.36 716.44 580.73 716.67 586.08 716.70 C 575.39 727.28 564.36 737.49 553.85 748.24 C 551.51 746.53 549.78 744.20 547.86 742.08 C 541.00 734.63 534.38 726.96 527.46 719.58 C 527.41 719.11 527.30 718.19 527.24 717.73 Z" />
<path fill="#d42807" d=" M 822.42 725.30 C 823.38 724.33 824.26 722.66 825.91 723.33 C 829.03 726.00 831.99 728.88 834.85 731.84 C 821.39 746.08 808.53 760.87 795.14 775.18 C 793.88 776.01 794.24 777.70 795.43 778.42 C 799.71 782.19 803.97 785.97 808.07 789.94 C 821.29 775.89 834.21 761.52 847.10 747.16 C 850.44 749.94 853.78 752.73 856.78 755.90 C 844.30 769.37 832.14 783.12 819.63 796.55 C 819.17 797.31 817.39 798.50 818.61 799.37 C 823.41 803.85 828.35 808.20 833.09 812.76 C 847.17 797.76 860.72 782.24 874.80 767.22 C 878.10 770.14 881.17 773.34 884.62 776.10 C 865.56 797.42 846.11 818.38 827.01 839.65 C 807.17 821.79 787.61 803.63 767.74 785.81 C 785.59 765.32 804.29 745.56 822.42 725.30 Z" />
<path fill="#d42807" d=" M 184.25 726.90 C 184.73 727.07 185.68 727.41 186.16 727.58 C 198.64 740.56 210.94 753.71 223.45 766.66 C 229.97 773.95 237.03 781.10 241.21 790.09 C 242.92 793.84 243.69 798.00 243.31 802.13 C 241.39 809.85 235.69 815.83 229.66 820.69 C 226.04 823.50 221.78 826.08 217.01 825.82 C 208.03 826.53 200.84 820.05 194.55 814.54 C 183.39 803.87 172.94 792.51 162.35 781.28 C 156.15 787.29 149.74 793.09 143.67 799.23 C 138.09 793.42 132.46 787.66 127.08 781.68 C 146.02 763.30 165.45 745.42 184.25 726.90 Z" />
<path fill="#0d0907" d=" M 505.63 727.70 C 517.18 740.85 529.06 753.70 540.64 766.82 C 529.40 777.29 518.78 788.41 507.56 798.89 C 506.62 782.62 506.49 766.33 506.21 750.04 C 505.64 742.61 505.47 735.15 505.63 727.70 Z" />
<path fill="#0d0907" d=" M 588.68 745.71 C 591.77 742.68 594.61 739.33 598.27 736.95 C 598.63 746.29 598.37 755.66 599.34 764.98 C 599.30 778.82 600.74 792.60 600.58 806.45 C 589.36 794.98 579.09 782.60 568.12 770.89 C 567.36 769.85 565.83 768.93 566.34 767.45 C 573.84 760.26 581.11 752.83 588.68 745.71 Z" />
<path fill="#fefefe" d=" M 509.62 738.57 C 518.20 747.85 526.78 757.18 534.91 766.84 C 529.44 771.37 524.68 776.66 519.54 781.55 C 516.86 783.95 514.71 787.09 511.44 788.75 C 511.32 789.10 511.07 789.82 510.95 790.17 C 510.43 777.75 510.58 765.32 510.22 752.89 C 509.51 748.15 509.73 743.35 509.62 738.57 Z" />
<path fill="#fefefe" d=" M 571.34 768.20 C 579.26 761.00 586.53 753.11 594.46 745.92 C 594.66 749.37 594.66 752.83 594.76 756.30 C 595.88 765.85 595.32 775.52 595.85 785.12 C 596.64 788.33 596.24 791.67 596.50 794.94 C 596.09 794.84 595.28 794.62 594.88 794.52 C 587.16 785.64 579.12 777.03 571.34 768.20 Z" />
<path fill="#fefefe" d=" M 172.07 772.02 C 178.66 765.66 185.42 759.48 191.96 753.08 C 198.77 760.27 205.48 767.56 212.48 774.58 C 215.57 778.08 218.96 781.41 221.32 785.47 C 223.10 788.34 223.30 792.41 221.10 795.12 C 218.32 798.89 214.82 802.34 210.60 804.45 C 205.57 806.04 201.41 802.06 197.98 799.01 C 189.04 790.32 180.65 781.07 172.07 772.02 Z" />
<path fill="#d42807" d=" M 756.91 795.94 C 757.72 795.33 759.29 794.64 760.02 795.72 C 771.69 814.13 783.34 832.55 794.97 850.99 C 797.19 854.93 800.20 858.44 801.94 862.65 C 794.93 866.43 788.65 871.51 781.51 875.01 C 775.59 865.36 769.63 855.72 763.35 846.31 C 747.53 856.92 731.14 866.67 715.19 877.09 C 721.13 886.76 727.41 896.21 733.24 905.95 C 726.51 910.28 719.72 914.52 712.98 918.83 C 698.73 896.16 684.37 873.56 670.10 850.91 C 677.11 846.89 683.53 841.69 690.89 838.39 C 695.87 847.36 702.13 855.58 706.98 864.63 C 708.31 864.91 709.72 864.83 710.83 863.94 C 726.00 854.21 741.29 844.68 756.48 834.99 C 751.85 828.09 747.57 820.96 743.06 813.99 C 741.70 811.70 739.85 809.62 739.27 806.97 C 745.33 803.59 751.02 799.61 756.91 795.94 Z" />
<path fill="#d42807" d=" M 256.41 811.52 C 263.82 809.13 271.60 811.95 278.47 814.76 C 290.89 820.42 302.62 827.51 314.05 834.94 C 321.79 840.20 329.86 845.84 334.63 854.10 C 338.60 860.75 337.66 869.18 334.14 875.81 C 329.96 883.89 324.98 891.53 320.35 899.36 C 315.99 906.62 308.88 913.19 299.94 913.33 C 288.64 913.12 278.45 907.48 268.71 902.31 C 257.62 896.03 246.56 889.53 236.64 881.48 C 230.48 876.33 224.59 869.46 224.59 860.97 C 225.26 849.65 232.97 840.72 238.21 831.19 C 242.68 823.51 247.36 814.43 256.41 811.52 Z" />
<path fill="#fefefe" d=" M 266.97 831.91 C 270.15 828.36 275.50 829.08 279.47 830.73 C 286.90 833.73 293.72 838.05 300.52 842.25 C 305.33 845.40 310.63 848.42 313.69 853.48 C 315.29 856.08 314.61 859.26 314.34 862.12 C 310.48 869.31 306.07 876.19 301.95 883.23 C 299.35 887.59 296.59 892.48 291.60 894.42 C 288.02 895.31 284.19 894.67 280.86 893.18 C 272.97 889.79 265.77 885.05 258.49 880.56 C 254.31 877.67 249.55 874.78 247.52 869.91 C 245.83 863.14 250.88 857.44 253.90 851.91 C 258.22 845.23 261.37 837.66 266.97 831.91 Z" />
<path fill="#d42807" d=" M 354.75 858.08 C 373.84 862.83 392.85 867.93 411.85 873.01 C 419.20 874.93 426.51 877.14 433.42 880.31 C 438.77 882.90 444.17 886.59 446.38 892.37 C 448.83 899.48 446.62 907.08 444.15 913.87 C 442.48 918.79 438.24 922.95 432.94 923.55 C 428.54 924.70 424.04 923.66 419.60 923.48 C 425.67 925.73 432.80 928.51 435.27 935.07 C 437.20 943.96 432.81 952.43 431.09 960.98 C 423.40 959.22 415.86 956.80 408.14 955.17 C 408.62 948.94 411.57 943.20 412.09 936.98 C 412.07 930.96 406.30 927.44 401.19 925.90 C 392.19 923.29 383.09 921.03 374.03 918.66 C 370.69 917.84 367.42 916.63 363.95 916.42 C 362.49 924.98 359.59 933.22 357.58 941.66 C 349.84 939.44 341.97 937.67 334.25 935.39 C 341.32 909.68 347.87 883.83 354.75 858.08 Z" />
<path fill="#d42807" d=" M 628.06 863.57 C 637.33 861.66 647.36 858.63 656.54 862.56 C 663.50 865.83 667.04 873.36 668.80 880.46 C 661.14 882.84 653.42 885.07 645.64 887.02 C 644.42 882.88 643.42 876.80 638.02 876.44 C 629.28 876.18 621.03 879.79 612.63 881.74 C 606.35 883.89 599.18 885.45 594.72 890.76 C 591.02 896.19 593.94 902.93 595.40 908.64 C 596.93 913.82 598.30 919.05 599.74 924.27 C 601.27 928.87 603.10 934.03 607.80 936.30 C 617.44 938.15 626.91 934.53 636.09 932.03 C 642.01 930.08 648.55 928.63 653.21 924.22 C 656.85 920.46 655.26 914.68 653.31 910.50 C 660.89 907.68 668.85 906.08 676.49 903.46 C 678.87 910.18 681.10 917.94 677.83 924.77 C 673.57 932.69 664.61 936.08 656.69 939.14 C 643.85 943.42 631.05 947.95 617.82 950.89 C 608.49 952.67 598.01 954.48 589.20 949.87 C 580.08 944.51 577.46 933.48 574.74 924.04 C 572.29 914.29 567.61 904.24 570.48 894.06 C 572.80 885.69 580.41 880.30 587.87 876.77 C 600.62 870.61 614.46 867.24 628.06 863.57 Z" />
<path fill="#fefefe" d=" M 374.59 877.10 C 385.76 879.97 396.91 882.88 408.07 885.79 C 412.67 887.21 417.64 888.38 421.35 891.63 C 424.47 894.61 423.45 899.35 422.48 903.07 C 421.40 907.11 419.72 911.97 415.22 913.23 C 410.79 914.19 406.23 913.21 401.91 912.16 C 390.45 909.25 379.09 906.01 367.64 903.10 C 370.08 894.47 372.26 885.77 374.59 877.10 Z" />
<path fill="#d42807" d=" M 468.18 888.97 C 475.06 884.88 483.28 884.31 491.05 883.52 C 504.68 883.18 518.32 883.02 531.94 883.41 C 538.86 884.03 546.35 885.38 551.62 890.28 C 556.02 894.48 557.08 900.88 556.76 906.71 C 548.74 906.93 540.70 906.53 532.69 907.18 C 532.66 903.80 533.02 899.51 529.55 897.60 C 524.09 895.08 517.88 895.87 512.05 895.74 C 505.64 895.57 499.24 896.12 492.87 896.77 C 489.31 897.34 484.70 898.32 483.77 902.45 C 482.85 906.80 483.08 913.25 488.23 914.82 C 500.14 917.92 512.65 915.58 524.71 917.30 C 533.25 917.55 542.09 917.78 550.15 920.94 C 555.50 922.96 558.77 928.33 559.36 933.87 C 560.05 940.65 560.11 948.19 555.96 953.98 C 552.05 959.32 545.38 961.48 539.15 962.64 C 525.91 964.93 512.41 964.17 499.05 964.63 C 488.10 964.18 476.08 964.75 466.54 958.46 C 460.18 954.14 458.46 945.92 459.40 938.71 C 467.32 938.34 475.24 938.76 483.16 938.38 C 483.22 942.02 482.74 946.55 485.99 949.08 C 490.77 951.98 496.61 951.54 501.98 951.65 C 510.80 951.50 519.75 952.20 528.43 950.23 C 531.49 949.49 534.63 947.52 535.26 944.21 C 535.93 940.79 536.00 936.94 534.18 933.86 C 531.33 930.15 526.20 930.13 521.96 929.78 C 508.49 929.33 494.95 929.85 481.56 928.18 C 475.30 927.23 468.53 925.63 464.10 920.77 C 459.34 915.38 458.84 907.70 459.79 900.90 C 460.71 895.96 463.74 891.40 468.18 888.97 Z" />
</svg>
